<mxfile host="app.diagrams.net" agent="Mozilla/5.0 (Windows NT 10.0; Win64; x64) AppleWebKit/537.36 (KHTML, like Gecko) Chrome/127.0.0.0 Safari/537.36 Edg/127.0.0.0" version="24.7.5">
  <diagram name="Page-1" id="12e1b939-464a-85fe-373e-61e167be1490">
    <mxGraphModel dx="1173" dy="629" grid="1" gridSize="10" guides="1" tooltips="1" connect="1" arrows="1" fold="1" page="1" pageScale="1.5" pageWidth="1169" pageHeight="826" background="none" math="0" shadow="0">
      <root>
        <mxCell id="0" />
        <mxCell id="1" parent="0" />
        <mxCell id="6vTjmIqk2vk8nu6kUYn--7" style="edgeStyle=orthogonalEdgeStyle;rounded=0;orthogonalLoop=1;jettySize=auto;html=1;exitX=0.5;exitY=1;exitDx=0;exitDy=0;entryX=0.5;entryY=0;entryDx=0;entryDy=0;" edge="1" parent="1" source="6vTjmIqk2vk8nu6kUYn--1" target="6vTjmIqk2vk8nu6kUYn--6">
          <mxGeometry relative="1" as="geometry" />
        </mxCell>
        <mxCell id="6vTjmIqk2vk8nu6kUYn--1" value="开始" style="rounded=1;whiteSpace=wrap;html=1;" vertex="1" parent="1">
          <mxGeometry x="440" y="350" width="120" height="60" as="geometry" />
        </mxCell>
        <mxCell id="6vTjmIqk2vk8nu6kUYn--23" value="" style="edgeStyle=orthogonalEdgeStyle;rounded=0;orthogonalLoop=1;jettySize=auto;html=1;" edge="1" parent="1" source="6vTjmIqk2vk8nu6kUYn--3" target="6vTjmIqk2vk8nu6kUYn--22">
          <mxGeometry relative="1" as="geometry">
            <Array as="points">
              <mxPoint x="750" y="430" />
              <mxPoint x="750" y="430" />
            </Array>
          </mxGeometry>
        </mxCell>
        <mxCell id="6vTjmIqk2vk8nu6kUYn--30" value="查看" style="edgeLabel;html=1;align=center;verticalAlign=middle;resizable=0;points=[];" vertex="1" connectable="0" parent="6vTjmIqk2vk8nu6kUYn--23">
          <mxGeometry x="-0.1467" relative="1" as="geometry">
            <mxPoint as="offset" />
          </mxGeometry>
        </mxCell>
        <mxCell id="6vTjmIqk2vk8nu6kUYn--26" style="edgeStyle=orthogonalEdgeStyle;rounded=0;orthogonalLoop=1;jettySize=auto;html=1;exitX=0.75;exitY=1;exitDx=0;exitDy=0;entryX=0.25;entryY=0;entryDx=0;entryDy=0;" edge="1" parent="1" source="6vTjmIqk2vk8nu6kUYn--3" target="6vTjmIqk2vk8nu6kUYn--24">
          <mxGeometry relative="1" as="geometry" />
        </mxCell>
        <mxCell id="6vTjmIqk2vk8nu6kUYn--29" value="操作" style="edgeLabel;html=1;align=center;verticalAlign=middle;resizable=0;points=[];" vertex="1" connectable="0" parent="6vTjmIqk2vk8nu6kUYn--26">
          <mxGeometry x="-0.2" y="-1" relative="1" as="geometry">
            <mxPoint as="offset" />
          </mxGeometry>
        </mxCell>
        <mxCell id="6vTjmIqk2vk8nu6kUYn--3" value="列表" style="rounded=1;whiteSpace=wrap;html=1;" vertex="1" parent="1">
          <mxGeometry x="610" y="400" width="120" height="60" as="geometry" />
        </mxCell>
        <mxCell id="6vTjmIqk2vk8nu6kUYn--4" value="" style="strokeWidth=2;html=1;shape=mxgraph.flowchart.annotation_2;align=left;labelPosition=right;pointerEvents=1;" vertex="1" parent="1">
          <mxGeometry x="560" y="330" width="50" height="100" as="geometry" />
        </mxCell>
        <mxCell id="6vTjmIqk2vk8nu6kUYn--21" style="edgeStyle=orthogonalEdgeStyle;rounded=0;orthogonalLoop=1;jettySize=auto;html=1;exitX=0.5;exitY=1;exitDx=0;exitDy=0;entryX=0.5;entryY=0;entryDx=0;entryDy=0;dashed=1;" edge="1" parent="1" source="6vTjmIqk2vk8nu6kUYn--5" target="6vTjmIqk2vk8nu6kUYn--3">
          <mxGeometry relative="1" as="geometry" />
        </mxCell>
        <mxCell id="6vTjmIqk2vk8nu6kUYn--5" value="搜索" style="rounded=1;whiteSpace=wrap;html=1;" vertex="1" parent="1">
          <mxGeometry x="610" y="300" width="120" height="60" as="geometry" />
        </mxCell>
        <mxCell id="6vTjmIqk2vk8nu6kUYn--8" style="edgeStyle=orthogonalEdgeStyle;rounded=0;orthogonalLoop=1;jettySize=auto;html=1;exitX=1;exitY=0.5;exitDx=0;exitDy=0;entryX=0.25;entryY=1;entryDx=0;entryDy=0;" edge="1" parent="1" source="6vTjmIqk2vk8nu6kUYn--6" target="6vTjmIqk2vk8nu6kUYn--3">
          <mxGeometry relative="1" as="geometry" />
        </mxCell>
        <mxCell id="6vTjmIqk2vk8nu6kUYn--9" value="退出" style="edgeLabel;html=1;align=center;verticalAlign=middle;resizable=0;points=[];" vertex="1" connectable="0" parent="6vTjmIqk2vk8nu6kUYn--8">
          <mxGeometry x="-0.0952" y="1" relative="1" as="geometry">
            <mxPoint as="offset" />
          </mxGeometry>
        </mxCell>
        <mxCell id="6vTjmIqk2vk8nu6kUYn--11" style="edgeStyle=orthogonalEdgeStyle;rounded=0;orthogonalLoop=1;jettySize=auto;html=1;exitX=0.5;exitY=1;exitDx=0;exitDy=0;entryX=0.5;entryY=0;entryDx=0;entryDy=0;" edge="1" parent="1" source="6vTjmIqk2vk8nu6kUYn--6" target="6vTjmIqk2vk8nu6kUYn--10">
          <mxGeometry relative="1" as="geometry" />
        </mxCell>
        <mxCell id="6vTjmIqk2vk8nu6kUYn--6" value="新增/编辑" style="rounded=1;whiteSpace=wrap;html=1;" vertex="1" parent="1">
          <mxGeometry x="440" y="460" width="120" height="60" as="geometry" />
        </mxCell>
        <mxCell id="6vTjmIqk2vk8nu6kUYn--14" style="edgeStyle=orthogonalEdgeStyle;rounded=0;orthogonalLoop=1;jettySize=auto;html=1;exitX=0.5;exitY=1;exitDx=0;exitDy=0;" edge="1" parent="1" source="6vTjmIqk2vk8nu6kUYn--10" target="6vTjmIqk2vk8nu6kUYn--12">
          <mxGeometry relative="1" as="geometry" />
        </mxCell>
        <mxCell id="6vTjmIqk2vk8nu6kUYn--10" value="编辑内容" style="rounded=1;whiteSpace=wrap;html=1;" vertex="1" parent="1">
          <mxGeometry x="440" y="560" width="120" height="60" as="geometry" />
        </mxCell>
        <mxCell id="6vTjmIqk2vk8nu6kUYn--15" style="edgeStyle=orthogonalEdgeStyle;rounded=0;orthogonalLoop=1;jettySize=auto;html=1;exitX=0.5;exitY=1;exitDx=0;exitDy=0;entryX=0.5;entryY=0;entryDx=0;entryDy=0;" edge="1" parent="1" source="6vTjmIqk2vk8nu6kUYn--12" target="6vTjmIqk2vk8nu6kUYn--13">
          <mxGeometry relative="1" as="geometry" />
        </mxCell>
        <mxCell id="6vTjmIqk2vk8nu6kUYn--12" value="确定" style="rounded=1;whiteSpace=wrap;html=1;" vertex="1" parent="1">
          <mxGeometry x="440" y="660" width="120" height="60" as="geometry" />
        </mxCell>
        <mxCell id="6vTjmIqk2vk8nu6kUYn--16" style="edgeStyle=orthogonalEdgeStyle;rounded=0;orthogonalLoop=1;jettySize=auto;html=1;exitX=1;exitY=0.5;exitDx=0;exitDy=0;entryX=1;entryY=0.5;entryDx=0;entryDy=0;" edge="1" parent="1" source="6vTjmIqk2vk8nu6kUYn--13" target="6vTjmIqk2vk8nu6kUYn--12">
          <mxGeometry relative="1" as="geometry" />
        </mxCell>
        <mxCell id="6vTjmIqk2vk8nu6kUYn--17" value="不通过" style="edgeLabel;html=1;align=center;verticalAlign=middle;resizable=0;points=[];" vertex="1" connectable="0" parent="6vTjmIqk2vk8nu6kUYn--16">
          <mxGeometry y="-2" relative="1" as="geometry">
            <mxPoint as="offset" />
          </mxGeometry>
        </mxCell>
        <mxCell id="6vTjmIqk2vk8nu6kUYn--19" style="edgeStyle=orthogonalEdgeStyle;rounded=0;orthogonalLoop=1;jettySize=auto;html=1;exitX=0.5;exitY=1;exitDx=0;exitDy=0;entryX=0.5;entryY=0;entryDx=0;entryDy=0;" edge="1" parent="1" source="6vTjmIqk2vk8nu6kUYn--13" target="6vTjmIqk2vk8nu6kUYn--18">
          <mxGeometry relative="1" as="geometry" />
        </mxCell>
        <mxCell id="6vTjmIqk2vk8nu6kUYn--20" value="通过" style="edgeLabel;html=1;align=center;verticalAlign=middle;resizable=0;points=[];" vertex="1" connectable="0" parent="6vTjmIqk2vk8nu6kUYn--19">
          <mxGeometry x="-0.2" y="-2" relative="1" as="geometry">
            <mxPoint as="offset" />
          </mxGeometry>
        </mxCell>
        <mxCell id="6vTjmIqk2vk8nu6kUYn--13" value="校验" style="rounded=1;whiteSpace=wrap;html=1;" vertex="1" parent="1">
          <mxGeometry x="440" y="760" width="120" height="60" as="geometry" />
        </mxCell>
        <mxCell id="6vTjmIqk2vk8nu6kUYn--18" value="提交" style="rounded=1;whiteSpace=wrap;html=1;" vertex="1" parent="1">
          <mxGeometry x="440" y="860" width="120" height="60" as="geometry" />
        </mxCell>
        <mxCell id="6vTjmIqk2vk8nu6kUYn--31" style="edgeStyle=orthogonalEdgeStyle;rounded=0;orthogonalLoop=1;jettySize=auto;html=1;exitX=0;exitY=0.25;exitDx=0;exitDy=0;entryX=1;entryY=0.25;entryDx=0;entryDy=0;" edge="1" parent="1" source="6vTjmIqk2vk8nu6kUYn--22" target="6vTjmIqk2vk8nu6kUYn--3">
          <mxGeometry relative="1" as="geometry" />
        </mxCell>
        <mxCell id="6vTjmIqk2vk8nu6kUYn--32" value="返回" style="edgeLabel;html=1;align=center;verticalAlign=middle;resizable=0;points=[];" vertex="1" connectable="0" parent="6vTjmIqk2vk8nu6kUYn--31">
          <mxGeometry x="0.1067" y="1" relative="1" as="geometry">
            <mxPoint as="offset" />
          </mxGeometry>
        </mxCell>
        <mxCell id="6vTjmIqk2vk8nu6kUYn--22" value="详情" style="rounded=1;whiteSpace=wrap;html=1;" vertex="1" parent="1">
          <mxGeometry x="780" y="400" width="120" height="60" as="geometry" />
        </mxCell>
        <mxCell id="6vTjmIqk2vk8nu6kUYn--27" style="edgeStyle=orthogonalEdgeStyle;rounded=0;orthogonalLoop=1;jettySize=auto;html=1;exitX=0.75;exitY=0;exitDx=0;exitDy=0;entryX=1;entryY=0.75;entryDx=0;entryDy=0;" edge="1" parent="1" source="6vTjmIqk2vk8nu6kUYn--24" target="6vTjmIqk2vk8nu6kUYn--3">
          <mxGeometry relative="1" as="geometry" />
        </mxCell>
        <mxCell id="6vTjmIqk2vk8nu6kUYn--28" value="确定" style="edgeLabel;html=1;align=center;verticalAlign=middle;resizable=0;points=[];" vertex="1" connectable="0" parent="6vTjmIqk2vk8nu6kUYn--27">
          <mxGeometry x="-0.2381" relative="1" as="geometry">
            <mxPoint as="offset" />
          </mxGeometry>
        </mxCell>
        <mxCell id="6vTjmIqk2vk8nu6kUYn--24" value="删除" style="rounded=1;whiteSpace=wrap;html=1;" vertex="1" parent="1">
          <mxGeometry x="670" y="520" width="120" height="60" as="geometry" />
        </mxCell>
      </root>
    </mxGraphModel>
  </diagram>
</mxfile>
